<svg xmlns="http://www.w3.org/2000/svg" aria-hidden="true" role="img" class="iconify iconify--logos" width="35.93" height="32" preserveAspectRatio="xMidYMid meet" viewBox="0 0 111.58 100"><path d="M44.07 95.2a12.58 12.58 0 0 1-22.47-7.78 12.69 12.69 0 0 1 .9-4.67c2.86-7.14-4.09-19.2-11.7-20.29a12.59 12.59 0 0 1 0-24.92c7.61-1.09 14.56-13.16 11.7-20.29A12.58 12.58 0 0 1 34.18 0a12.56 12.56 0 0 1 9.89 4.8c4.78 6.07 18.66 6.07 23.44 0a12.58 12.58 0 1 1 0 15.55c-4.78-6.06-18.66-6.06-23.44 0A12.55 12.55 0 0 1 36 25c-7.64 1.12-14.6 13.19-11.74 20.32a12.62 12.62 0 0 1 0 9.36C21.4 61.81 28.36 73.87 36 75a12.6 12.6 0 0 1 8.1 4.68c4.79 6.06 18.66 6.06 23.44 0a12.58 12.58 0 1 1 0 15.56c-4.78-6.07-18.66-6.07-23.44 0z" fill="#ddd"/><path d="M65.68 57.78a12.58 12.58 0 1 1 0-15.56c4.78 6.07 18.65 6.07 23.44 0a12.58 12.58 0 1 1 0 15.56c-4.79-6.07-18.66-6.07-23.44 0z" fill="#ff9832"/></svg>